<svg t="1647329483504" class="icon" viewBox="0 0 1260 1024" version="1.1" xmlns="http://www.w3.org/2000/svg" p-id="4962" width="32" height="32" data-spm-anchor-id="a313x.7781069.0.i13"><path d="M166.137 564.657a35.604 35.604 0 1 1 71.168 0 35.604 35.604 0 0 1-71.168 0z m54.745-179.83a55.847 55.847 0 1 1 111.695 0 55.847 55.847 0 0 1-111.656 0z m206.297-146.314a72.074 72.074 0 1 1 144.108 0 72.074 72.074 0 0 1-144.108 0z m272.541 0a90.466 90.466 0 1 1 180.972 0 90.466 90.466 0 0 1-180.972 0z m549.022-88.103a31.783 31.783 0 0 1 3.15 44.82L771.597 748.308l-108.74 75.658 60.612-119.139 479.39-552.093a31.783 31.783 0 0 1 44.859-3.151l0.945 0.787z m-82.157 307.003a32.414 32.414 0 0 1 32.296 34.973h0.118c-2.56 29.46-73.059 298.536-269.982 415.35-328.192 194.718-543.35 48.759-586.358-20.755-29.696-48.01-52.381-100.864-69.71-120.793-27.215-31.192-150.056 43.245-233.945-50.845-83.929-94.13-58.526-470.45 343.276-651.028 367.931-165.337 631.414 36.155 673.162 71.286a31.429 31.429 0 1 1-38.99 49.35C917.241 102.4 719.53 28.198 487.357 89.796c-331.815 86.41-465.683 435.554-408.97 570.25 30.523 72.467 175.853 6.223 233.315 53.996 21.425 17.802 59.037 91.254 83.732 134.774 44.898 79.281 286.72 140.997 497.979 3.82 195.82-127.133 240.718-365.331 240.718-365.331h0.119a32.414 32.414 0 0 1 32.295-29.893z" fill="#1195db" p-id="4963" data-spm-anchor-id="a313x.7781069.0.i12" class="selected"></path></svg>